<svg id="Layer_1" data-name="Layer 1" xmlns="http://www.w3.org/2000/svg" viewBox="0 0 178.98 100.78"><defs><style>.cls-1{fill:#0e7da0;}</style></defs><title>Artboard 15</title><path class="cls-1" d="M12.19,90.41a4.46,4.46,0,0,1-1.28,3.38A4.79,4.79,0,0,1,7.45,95H0V70.57H7.45a4.75,4.75,0,0,1,3.45,1.24,4.51,4.51,0,0,1,1.28,3.4ZM8.52,89.8v-14q0-2-2.14-2H3.66V91.88H6.28Q8.52,91.88,8.52,89.8Z"/><path class="cls-1" d="M25,93.07a1.75,1.75,0,0,1-2,2H16.84a1.75,1.75,0,0,1-2-2V81.19a1.75,1.75,0,0,1,2-2H23a1.75,1.75,0,0,1,2,2V87l-1,1h-5.8v4.42h3.36V89.77H25Zm-3.42-7.42V81.86H18.25v3.78Z"/><path class="cls-1" d="M37.58,85.83H34V82.22l-2.83.06V95H27.63V79.24H31.2v.58l2.2-.41a13.18,13.18,0,0,1,2.22-.23,1.71,1.71,0,0,1,2,1.92Z"/><path class="cls-1" d="M49.77,95H46.34v-.55l-2.44.38a18.1,18.1,0,0,1-2.42.23,1.71,1.71,0,0,1-2-1.92V87.47a1.75,1.75,0,0,1,2-2h4.83V81.89H43v2.25H39.72v-3a1.75,1.75,0,0,1,2-2h6a1.74,1.74,0,0,1,2,2Zm-3.39-2.84V87.94H43V92.3Z"/><path class="cls-1" d="M59.14,95h-4a1.74,1.74,0,0,1-2-2V82.28H51.5v-3h1.69V75h3.56v4.28H59v3h-2.3V92h2.39Z"/><path class="cls-1" d="M71.33,93.07a1.75,1.75,0,0,1-2,2H63.14a1.75,1.75,0,0,1-2-2V81.19a1.75,1.75,0,0,1,2-2h6.17a1.75,1.75,0,0,1,2,2V87l-1,1h-5.8v4.42h3.36V89.77h3.42Zm-3.42-7.42V81.86H64.55v3.78Z"/><path class="cls-1" d="M84.45,95H80.64L77.5,87.78V95H73.92V70.57H77.5V85.25l2.83-6h3.73v.06l-3.64,7.17Z"/><path class="cls-1" d="M101.06,95H93.25V70.57h2.17V93.1h5.64Z"/><path class="cls-1" d="M112.52,93.25A1.56,1.56,0,0,1,110.75,95h-5.22a1.55,1.55,0,0,1-1.75-1.77V81.58a1.55,1.55,0,0,1,1.75-1.77h5.22a1.56,1.56,0,0,1,1.77,1.77Zm-2.08-.06V81.64h-4.58V93.19Z"/><path class="cls-1" d="M124.55,99a1.56,1.56,0,0,1-1.77,1.77h-4.94q-1.8,0-1.8-2.23,0-.27,0-.79c0-.35,0-.6,0-.76h2v2h4.34V95h-3.42a3.12,3.12,0,0,1-2.31-.93,3.18,3.18,0,0,1-.92-2.34V82.86a3.22,3.22,0,0,1,.81-2.24,2.75,2.75,0,0,1,2.14-.9q.36,0,3.7.52v-.42h2.06Zm-2.06-5.83V81.71q-2.47-.16-2.87-.16a1.53,1.53,0,0,0-1.72,1.75v8.14a1.53,1.53,0,0,0,1.72,1.75Z"/><path class="cls-1" d="M130.17,76.49h-2.11V73.86h2.11Zm0,18.53h-2V79.82h2Z"/><path class="cls-1" d="M141.86,93.25A1.56,1.56,0,0,1,140.09,95h-4.77a1.56,1.56,0,0,1-1.77-1.77V89.8h2v3.42h4.2v-3l-5.44-4.45a2,2,0,0,1-.78-1.62V81.58a1.56,1.56,0,0,1,1.77-1.77h4.7a1.56,1.56,0,0,1,1.77,1.77v3h-2v-3h-4.2v2.66l5.48,4.45a2,2,0,0,1,.77,1.66Z"/><path class="cls-1" d="M150.63,95h-3a1.55,1.55,0,0,1-1.75-1.77V81.64h-1.83V79.82h1.83V75.08h2v4.73h2.66v1.83H148V93.19h2.66Z"/><path class="cls-1" d="M155.48,76.49h-2.11V73.86h2.11Zm0,18.53h-2V79.82h2Z"/><path class="cls-1" d="M167.42,93.25A1.55,1.55,0,0,1,165.67,95h-4.94A1.55,1.55,0,0,1,159,93.25V81.58a1.55,1.55,0,0,1,1.75-1.77h4.94a1.55,1.55,0,0,1,1.75,1.77v3h-2v-3h-4.31V93.19h4.31V89.8h2Z"/><path class="cls-1" d="M179,93.25A1.56,1.56,0,0,1,177.22,95h-4.77a1.56,1.56,0,0,1-1.77-1.77V89.8h2v3.42h4.2v-3l-5.44-4.45a2,2,0,0,1-.78-1.62V81.58a1.56,1.56,0,0,1,1.77-1.77h4.7A1.56,1.56,0,0,1,179,81.58v3h-2v-3h-4.2v2.66l5.48,4.45a2,2,0,0,1,.77,1.66Z"/><path class="cls-1" d="M88.07,15.47v5.42l-6.88-6.31a2,2,0,0,1,1.36-3.47,2,2,0,0,1,1.34.53Z"/><path class="cls-1" d="M88.07,42.69V47.5l-7.81,5.21a.77.77,0,0,1-1.19-.64V31H75a1.37,1.37,0,1,1,0-2.74h4.11V26.89H71a1.38,1.38,0,0,1-1.38-1.37h0A1.37,1.37,0,0,1,71,24.14h8.11V22.73H67A1.38,1.38,0,1,1,67,20H79.07v-.31A1.92,1.92,0,0,1,81,17.76h.18a1.92,1.92,0,0,1,1.91,1.91V46Z"/><path class="cls-1" d="M106.36,35.31,94.07,43.5V38.69l7.77-5.18-7.77-7.12V21l12.51,11.46A1.85,1.85,0,0,1,106.36,35.31Z"/><path class="cls-1" d="M107.07,50.74a2.1,2.1,0,0,1-2.1,2.1H90.34a1.27,1.27,0,0,1-1.27-1.27V13a2,2,0,0,1,2-2,2,2,0,0,1,2,2V48.64H105A2.1,2.1,0,0,1,107.07,50.74Z"/><path class="cls-1" d="M88.44,67a33.5,33.5,0,1,1,33.5-33.5A33.54,33.54,0,0,1,88.44,67Zm0-64a30.5,30.5,0,1,0,30.5,30.5A30.53,30.53,0,0,0,88.44,3Z"/></svg>